name D:\school\WTK\thesis\model\3dpredictsim\Results\debug_batch\Pog_s1_tmt_aCst_d00_k800_ig24.mot
datacolumns 128
datarows 4
range 1.08704329 1.11965459
endheader
time	pelvis_tilt	pelvis_list	pelvis_rotation	pelvis_tx	pelvis_ty	pelvis_tz	hip_flexion_l	hip_adduction_l	hip_rotation_l	hip_flexion_r	hip_adduction_r	hip_rotation_r	knee_angle_l	knee_angle_r	ankle_angle_l	ankle_angle_r	subtalar_angle_l	subtalar_angle_r	tmt_angle_l	tmt_angle_r	mtp_angle_l	mtp_angle_r	lumbar_extension	lumbar_bending	lumbar_rotation	arm_flex_l	arm_add_l	arm_rot_l	arm_flex_r	arm_add_r	arm_rot_r	elbow_flex_l	elbow_flex_r	pro_sup_l	pro_sup_r	glut_med1_l/activation	glut_med2_l/activation	glut_med3_l/activation	glut_min1_l/activation	glut_min2_l/activation	glut_min3_l/activation	semimem_l/activation	semiten_l/activation	bifemlh_l/activation	bifemsh_l/activation	sar_l/activation	add_long_l/activation	add_brev_l/activation	add_mag1_l/activation	add_mag2_l/activation	add_mag3_l/activation	tfl_l/activation	pect_l/activation	grac_l/activation	glut_max1_l/activation	glut_max2_l/activation	glut_max3_l/activation	iliacus_l/activation	psoas_l/activation	quad_fem_l/activation	gem_l/activation	peri_l/activation	rect_fem_l/activation	vas_med_l/activation	vas_int_l/activation	vas_lat_l/activation	med_gas_l/activation	lat_gas_l/activation	soleus_l/activation	tib_post_l/activation	flex_dig_l/activation	flex_hal_l/activation	tib_ant_l/activation	per_brev_l/activation	per_long_l/activation	per_tert_l/activation	ext_dig_l/activation	ext_hal_l/activation	ercspn_l/activation	intobl_l/activation	extobl_l/activation	glut_med1_r/activation	glut_med2_r/activation	glut_med3_r/activation	glut_min1_r/activation	glut_min2_r/activation	glut_min3_r/activation	semimem_r/activation	semiten_r/activation	bifemlh_r/activation	bifemsh_r/activation	sar_r/activation	add_long_r/activation	add_brev_r/activation	add_mag1_r/activation	add_mag2_r/activation	add_mag3_r/activation	tfl_r/activation	pect_r/activation	grac_r/activation	glut_max1_r/activation	glut_max2_r/activation	glut_max3_r/activation	iliacus_r/activation	psoas_r/activation	quad_fem_r/activation	gem_r/activation	peri_r/activation	rect_fem_r/activation	vas_med_r/activation	vas_int_r/activation	vas_lat_r/activation	med_gas_r/activation	lat_gas_r/activation	soleus_r/activation	tib_post_r/activation	flex_dig_r/activation	flex_hal_r/activation	tib_ant_r/activation	per_brev_r/activation	per_long_r/activation	per_tert_r/activation	ext_dig_r/activation	ext_hal_r/activation	ercspn_r/activation	intobl_r/activation	extobl_r/activation	
          1.08704329	         -2.92705544	         -2.20045500	          5.76384524	          1.35880411	          0.85754721	         -0.00189957	        -17.53097938	         -1.91225948	          7.61719922	         31.63532909	          3.27145474	         -1.74808709	         -9.50096810	        -15.77223031	         -0.74445126	          5.85538846	         12.21871953	         -2.36805997	          1.95812283	          0.04813092	         22.56205893	         -0.09599433	         -1.87489153	          0.67636661	         -1.95449307	          7.71541842	        -13.47061790	         18.67267210	         -7.93708228	        -13.55842843	         12.08317384	         35.20173398	         12.25407723	         86.51662706	         86.51662706	          0.30003368	          0.09732848	          0.05990296	          0.31594791	          0.21003694	          0.09821036	          0.05000545	          0.05000057	          0.05000042	          0.07188689	          0.09735964	          0.10330530	          0.13005825	          0.05000551	          0.05000778	          0.05000249	          0.28027467	          0.07938282	          0.05000362	          0.05000438	          0.05000263	          0.05000269	          0.31143637	          0.51912806	          0.05000055	          0.05000126	          0.05000031	          0.18807874	          0.08616620	          0.07133457	          0.06805432	          0.27972906	          0.37444897	          0.27179494	          0.22889401	          0.24446146	          0.31357695	          0.05000004	          0.05906041	          0.15010900	          0.05000024	          0.05000007	          0.05000026	          0.05000009	          0.05162707	          0.05246176	          0.05905865	          0.05905876	          0.05000026	          0.05905889	          0.05905885	          0.05905845	          0.05905605	          0.05000849	          0.17358923	          0.05000108	          0.05000102	          0.11497012	          0.29040884	          0.10586162	          0.10793771	          0.10480347	          0.05000037	          0.07016989	          0.08553881	          0.05000067	          0.05000047	          0.14482231	          0.05905920	          0.05000210	          0.32742610	          0.24891994	          0.13487295	          0.06296447	          0.17659434	          0.17649881	          0.15145376	          0.05434320	          0.05309435	          0.05905876	          0.05000003	          0.05000094	          0.05000099	          0.58946367	          0.36277782	          0.19691303	          0.39839978	          0.57303130	          0.30085865	          0.05905872	          0.09618710	          0.09732708	
          1.09791372	         -2.91899244	         -2.29958527	          6.02721332	          1.37538006	          0.85649746	         -0.00168713	        -17.25047445	         -2.20818669	          7.37662040	         30.91880966	          3.65371607	         -1.50087960	        -11.66732731	        -15.90258945	         -1.65171357	          5.21376021	         13.22585967	         -2.86876067	          1.62975637	          0.02195277	         23.54376808	         -0.06000809	         -1.66819302	          0.91086439	         -2.02887548	          7.41929107	        -13.49195246	         18.74267925	         -9.00070418	        -13.55585734	         11.95716009	         36.40029009	         12.17229779	         86.51662706	         86.51662706	          0.25401324	          0.08239984	          0.05905851	          0.26748657	          0.17782062	          0.08314649	          0.05000778	          0.05000148	          0.05000503	          0.06086060	          0.08242650	          0.20750366	          0.22135915	          0.11394182	          0.05906042	          0.05905981	          0.23728510	          0.06721005	          0.05001208	          0.05002897	          0.05226948	          0.05905811	          0.26366694	          0.47405185	          0.05905862	          0.05905869	          0.05000552	          0.15923049	          0.13399406	          0.13578586	          0.13578412	          0.23682294	          0.31701430	          0.23010579	          0.19378530	          0.20696519	          0.26547932	          0.05000006	          0.05000158	          0.12880016	          0.05000015	          0.05000012	          0.05000026	          0.06065792	          0.05905903	          0.05439911	          0.05000003	          0.05000017	          0.11183033	          0.05000021	          0.05000021	          0.05000022	          0.05000012	          0.05000021	          0.14696340	          0.05000012	          0.05000139	          0.09733574	          0.24586570	          0.36010590	          0.23418166	          0.11985478	          0.05000144	          0.05941110	          0.07538717	          0.07808586	          0.09884735	          0.12260931	          0.05000066	          0.05905964	          0.46552253	          0.21073954	          0.11418560	          0.06975764	          0.21396601	          0.22323504	          0.18485615	          0.05000038	          0.05000089	          0.05000010	          0.05905888	          0.06975799	          0.06975496	          0.49905097	          0.37817251	          0.22039417	          0.33729250	          0.54321962	          0.25471173	          0.05000004	          0.08143350	          0.08239862	
          1.10878416	         -2.90695478	         -2.39877573	          6.25889968	          1.39219179	          0.85539021	         -0.00149251	        -16.88945520	         -2.48937474	          7.12520197	         30.00445615	          3.96425619	         -1.22039463	        -13.96380324	        -16.21385754	         -2.70044249	          4.78558106	         14.14970163	         -3.38911156	          1.27582334	         -0.00763538	         24.28684963	         -0.18733273	         -1.44427371	          1.15161363	         -2.09248151	          7.03766907	        -13.51526076	         18.73292339	        -10.05868872	        -13.55941767	         11.88281597	         37.58391609	         12.10710861	         86.51662706	         86.51662706	          0.34400132	          0.06976101	          0.05000006	          0.35674049	          0.15054587	          0.07039318	          0.06327276	          0.05000028	          0.05000019	          0.05152575	          0.06978461	          0.17567605	          0.18740647	          0.09646508	          0.05000217	          0.05000126	          0.21795420	          0.08240614	          0.05000097	          0.05000128	          0.05000070	          0.05000052	          0.22322480	          0.43969062	          0.05000012	          0.05000057	          0.05000021	          0.13480705	          0.11344154	          0.11495850	          0.11495702	          0.20049796	          0.26838921	          0.19481111	          0.16406168	          0.17522014	          0.22475905	          0.09235746	          0.14982683	          0.16543066	          0.05000160	          0.15585755	          0.05000233	          0.07131030	          0.05000029	          0.05000015	          0.27236281	          0.27866968	          0.33863377	          0.38094489	          0.23104765	          0.18930043	          0.08118958	          0.09012871	          0.13250768	          0.08239723	          0.05905884	          0.08240602	          0.20815378	          0.30487137	          0.19826207	          0.11324517	          0.05000059	          0.05030053	          0.06382527	          0.19139310	          0.15381903	          0.10380326	          0.05000102	          0.05000101	          0.39411868	          0.17841568	          0.24028291	          0.05905794	          0.18114709	          0.18899455	          0.15650223	          0.05000120	          0.05000144	          0.05334759	          0.05000022	          0.05905908	          0.05905876	          0.59065223	          0.39714964	          0.19825505	          0.61036134	          0.62364757	          0.32219290	          0.06339962	          0.09569272	          0.06975995	
          1.11965459	         -2.89298518	         -2.48734826	          6.45207212	          1.40899664	          0.85425740	         -0.00127554	        -16.41939167	         -2.74573642	          6.87551627	         29.01393274	          4.25596197	         -0.94161958	        -16.42145363	        -16.46904216	         -3.77584996	          4.48837964	         14.99722673	         -3.94340936	          0.88996202	         -0.02071160	         24.53843808	         -0.18942607	         -1.22781265	          1.38585274	         -2.14545084	          6.61506882	        -13.54655766	         18.67241208	        -11.05550440	        -13.56315616	         11.87117217	         38.72231794	         12.02665357	         86.51662706	         86.51662706	          0.29123693	          0.05906086	          0.05000027	          0.30202216	          0.12745460	          0.05959610	          0.08663558	          0.05000063	          0.05000096	          0.05000016	          0.05908100	          0.19264839	          0.15866485	          0.13953250	          0.05004664	          0.13578061	          0.18452384	          0.06976694	          0.05000118	          0.05000759	          0.05000608	          0.05000487	          0.18898560	          0.37670236	          0.05000055	          0.05000183	          0.05000038	          0.11412976	          0.09732621	          0.09732716	          0.09732547	          0.16974467	          0.22722247	          0.16493009	          0.13889724	          0.14834435	          0.19028472	          0.19429082	          0.13015349	          0.14005656	          0.29287814	          0.24868611	          0.13089012	          0.10724634	          0.05000007	          0.05000008	          0.40077461	          0.43500323	          0.49293245	          0.32565757	          0.23847639	          0.42559290	          0.07671612	          0.11753906	          0.11218334	          0.06975900	          0.05000089	          0.06976634	          0.17622650	          0.25810963	          0.22998921	          0.16784585	          0.05000046	          0.05905739	          0.11495814	          0.27489221	          0.20388139	          0.16229140	          0.05000036	          0.05000027	          0.33366705	          0.15104965	          0.26423305	          0.05000005	          0.22802738	          0.25960825	          0.20202736	          0.05000003	          0.05000008	          0.05000001	          0.05000002	          0.05000053	          0.05000028	          0.68966781	          0.33623308	          0.16784582	          0.66036029	          0.63131452	          0.43786327	          0.08844273	          0.08101495	          0.05905986	
